# xmcd CD database file
#
# Track frame offsets:
#	150
#	16865
#	29542
#	43127
#	52927
#	72445
#	90157
#	106467
#	119917
#	137855
#	151052
#	178292
#	193102
#	202297
#	212122
#	227420
#
# Disc length: 3213 seconds
#
# Revision: 0
# Processed by: cddbd v1.4PL0 Copyright (c) Steve Scherf et al.
# Submitted via: CDex 1.50beta10a
#
DISCID=e90c8b10
DTITLE=RAY CHARLES - GEORGIA ON MY MIND
DYEAR=1900
DGENRE=Jazz
TTITLE0=Georgia on my mind
TTITLE1=Yesterday
TTITLE2=Eleanor Rigby
TTITLE3=Busted
TTITLE4=I can't stop loving you
TTITLE5=Ruby
TTITLE6=Come rain come shine
TTITLE7=Crying time
TTITLE8=What'd I say
TTITLE9=Unchained my heart
TTITLE10=I gotta woman
TTITLE11=Born to lose
TTITLE12=Hit the road Jack
TTITLE13=Yes-indeed
TTITLE14=Here we go again
TTITLE15=Take these chains from my heart
EXTD=
EXTT0=
EXTT1=
EXTT2=
EXTT3=
EXTT4=
EXTT5=
EXTT6=
EXTT7=
EXTT8=
EXTT9=
EXTT10=
EXTT11=
EXTT12=
EXTT13=
EXTT14=
EXTT15=
PLAYORDER=
